<svg width="46" height="46" viewBox="0 0 46 46" fill="none" xmlns="http://www.w3.org/2000/svg">
<path d="M23.4391 10.8139L25.1871 14.3654L29.1047 14.9309C29.5072 14.9884 29.6663 15.4829 29.3769 15.7646L26.5422 18.5246L27.213 22.4269C27.2285 22.5169 27.2185 22.6093 27.1842 22.6939C27.1499 22.7784 27.0926 22.8516 27.0188 22.9053C26.945 22.9589 26.8576 22.9909 26.7666 22.9974C26.6756 23.004 26.5846 22.985 26.5038 22.9425L23.0002 21.0987L19.4984 22.9425C19.4177 22.985 19.3266 23.004 19.2356 22.9974C19.1446 22.9909 19.0573 22.9589 18.9835 22.9053C18.9097 22.8516 18.8524 22.7784 18.8181 22.6939C18.7837 22.6093 18.7737 22.5169 18.7892 22.4269L19.4601 18.5265L16.6234 15.7665C16.5575 15.7029 16.5108 15.622 16.4887 15.533C16.4665 15.4441 16.4698 15.3507 16.4982 15.2636C16.5266 15.1765 16.5789 15.0991 16.6492 15.0402C16.7194 14.9814 16.8048 14.9435 16.8956 14.9309L20.8132 14.3654L22.5612 10.8139C22.6015 10.7317 22.6639 10.6626 22.7415 10.6142C22.8191 10.5658 22.9087 10.5401 23.0002 10.5401C23.0916 10.5401 23.1812 10.5658 23.2588 10.6142C23.3364 10.6626 23.3989 10.7317 23.4391 10.8139V10.8139ZM36.4168 17.25C36.4171 15.0494 35.8761 12.8824 34.8414 10.9401C33.8068 8.99786 32.3102 7.33992 30.4837 6.11244C28.6571 4.88496 26.5567 4.12561 24.3675 3.90134C22.1783 3.67707 19.9675 3.99474 17.93 4.82638C15.8925 5.65801 14.0909 6.97806 12.6839 8.67019C11.2769 10.3623 10.3077 12.3746 9.86181 14.5296C9.4159 16.6846 9.50693 18.9162 10.1269 21.0278C10.7468 23.1393 11.8767 25.066 13.4168 26.6379V40.7292L13.4322 40.9304C13.4666 41.1743 13.5631 41.4053 13.7125 41.6012C13.8618 41.797 14.059 41.9512 14.2851 42.049C14.5112 42.1467 14.7586 42.1847 15.0036 42.1594C15.2486 42.134 15.483 42.0461 15.6842 41.9041L22.9982 36.754L30.318 41.906L30.4886 42.0095C30.7078 42.1218 30.9522 42.176 31.1983 42.1667C31.4445 42.1574 31.6841 42.085 31.8942 41.9564C32.1043 41.8279 32.2779 41.6475 32.3983 41.4326C32.5186 41.2177 32.5817 40.9755 32.5816 40.7292L32.5854 26.6379C35.0454 24.1329 36.4216 20.7609 36.4168 17.25V17.25ZM29.7085 28.8727V37.9596L23.8243 33.8196L23.6327 33.7046C23.401 33.5907 23.143 33.5413 22.8857 33.5615C22.6284 33.5818 22.3812 33.6709 22.1702 33.8196L16.2937 37.9596V28.8727C18.332 30.0513 20.6456 30.6702 23.0002 30.6667C25.4439 30.6667 27.7343 30.015 29.7085 28.8727ZM12.4585 17.25C12.4585 14.4542 13.5691 11.7729 15.5461 9.79595C17.523 7.819 20.2043 6.70836 23.0002 6.70836C25.796 6.70836 28.4773 7.819 30.4542 9.79595C32.4312 11.7729 33.5418 14.4542 33.5418 17.25C33.5418 20.0459 32.4312 22.7272 30.4542 24.7041C28.4773 26.6811 25.796 27.7917 23.0002 27.7917C20.2043 27.7917 17.523 26.6811 15.5461 24.7041C13.5691 22.7272 12.4585 20.0459 12.4585 17.25V17.25Z" fill="white"/>
</svg>
