<svg width="35" height="36" viewBox="0 0 35 36" fill="none" xmlns="http://www.w3.org/2000/svg">
<path d="M24.3729 26.1937C24.0215 25.7785 23.8458 25.307 23.8458 24.7792C23.8458 24.2528 24.0215 23.8139 24.3729 23.4625L27.9187 19.9167H14.1667C13.6236 19.9167 13.1687 19.7327 12.802 19.3647C12.434 18.9979 12.25 18.5431 12.25 18C12.25 17.4569 12.434 17.0014 12.802 16.6334C13.1687 16.2667 13.6236 16.0833 14.1667 16.0833H27.9187L24.3729 12.5375C23.9896 12.1542 23.7979 11.6993 23.7979 11.1728C23.7979 10.6451 23.9896 10.1896 24.3729 9.80625C24.7243 9.42292 25.1639 9.23125 25.6916 9.23125C26.218 9.23125 26.6569 9.40694 27.0083 9.75833L33.9083 16.6583C34.1 16.85 34.2361 17.0576 34.3166 17.2812C34.3958 17.5049 34.4354 17.7444 34.4354 18C34.4354 18.2556 34.3958 18.4951 34.3166 18.7187C34.2361 18.9424 34.1 19.15 33.9083 19.3417L27.0083 26.2417C26.5931 26.6569 26.1382 26.8403 25.6437 26.7917C25.1479 26.7445 24.7243 26.5451 24.3729 26.1937V26.1937ZM4.58333 35.25C3.52917 35.25 2.62642 34.875 1.87508 34.1249C1.12503 33.3736 0.75 32.4708 0.75 31.4167V4.58333C0.75 3.52917 1.12503 2.62642 1.87508 1.87508C2.62642 1.12503 3.52917 0.75 4.58333 0.75H16.0833C16.6264 0.75 17.0819 0.933361 17.4499 1.30008C17.8166 1.66808 18 2.12361 18 2.66667C18 3.20972 17.8166 3.66461 17.4499 4.03133C17.0819 4.39933 16.6264 4.58333 16.0833 4.58333H4.58333V31.4167H16.0833C16.6264 31.4167 17.0819 31.6007 17.4499 31.9687C17.8166 32.3354 18 32.7903 18 33.3333C18 33.8764 17.8166 34.3313 17.4499 34.698C17.0819 35.066 16.6264 35.25 16.0833 35.25H4.58333Z" fill="white"/>
</svg>
