<svg width="42" height="32" viewBox="0 0 42 32" fill="none" xmlns="http://www.w3.org/2000/svg">
<path d="M15.8002 12.1C15.8002 13.1343 15.3893 14.1263 14.6579 14.8577C13.9265 15.5891 12.9345 16 11.9002 16C10.8659 16 9.87387 15.5891 9.14248 14.8577C8.41109 14.1263 8.0002 13.1343 8.0002 12.1C8.0002 11.0656 8.41109 10.0737 9.14248 9.34228C9.87387 8.61088 10.8659 8.19999 11.9002 8.19999C12.9345 8.19999 13.9265 8.61088 14.6579 9.34228C15.3893 10.0737 15.8002 11.0656 15.8002 12.1ZM5.4002 20.4174C5.40088 19.7632 5.66106 19.136 6.12364 18.6734C6.58622 18.2109 7.21341 17.9507 7.8676 17.95H15.9302C16.5844 17.9507 17.2116 18.2109 17.6742 18.6734C18.1367 19.136 18.3969 19.7632 18.3976 20.4174C18.3976 22.6196 16.8974 24.5384 14.7602 25.074L14.6068 25.113C12.8284 25.555 10.9668 25.555 9.1884 25.113L9.0324 25.074C7.99454 24.8137 7.0734 24.2141 6.41532 23.3705C5.75724 22.5268 5.39994 21.4874 5.4002 20.4174V20.4174ZM24.9002 10.8C24.5554 10.8 24.2248 10.937 23.981 11.1808C23.7372 11.4246 23.6002 11.7552 23.6002 12.1C23.6002 12.4448 23.7372 12.7754 23.981 13.0192C24.2248 13.263 24.5554 13.4 24.9002 13.4H32.7002C33.045 13.4 33.3756 13.263 33.6194 13.0192C33.8632 12.7754 34.0002 12.4448 34.0002 12.1C34.0002 11.7552 33.8632 11.4246 33.6194 11.1808C33.3756 10.937 33.045 10.8 32.7002 10.8H24.9002ZM24.9002 18.6C24.5554 18.6 24.2248 18.737 23.981 18.9808C23.7372 19.2246 23.6002 19.5552 23.6002 19.9C23.6002 20.2448 23.7372 20.5754 23.981 20.8192C24.2248 21.063 24.5554 21.2 24.9002 21.2H32.7002C33.045 21.2 33.3756 21.063 33.6194 20.8192C33.8632 20.5754 34.0002 20.2448 34.0002 19.9C34.0002 19.5552 33.8632 19.2246 33.6194 18.9808C33.3756 18.737 33.045 18.6 32.7002 18.6H24.9002ZM0.200195 4.94999C0.200195 2.43839 2.2386 0.399994 4.7502 0.399994H37.2502C39.7618 0.399994 41.8002 2.43839 41.8002 4.94999V27.05C41.8002 28.2567 41.3208 29.414 40.4675 30.2673C39.6142 31.1206 38.4569 31.6 37.2502 31.6H4.7502C3.54346 31.6 2.38615 31.1206 1.53286 30.2673C0.679569 29.414 0.200195 28.2567 0.200195 27.05V4.94999ZM4.7502 2.99999C4.23302 2.99999 3.73703 3.20544 3.37134 3.57114C3.00564 3.93683 2.8002 4.43282 2.8002 4.94999V27.05C2.8002 28.1264 3.6738 29 4.7502 29H37.2502C37.7674 29 38.2634 28.7945 38.6291 28.4289C38.9948 28.0632 39.2002 27.5672 39.2002 27.05V4.94999C39.2002 4.43282 38.9948 3.93683 38.6291 3.57114C38.2634 3.20544 37.7674 2.99999 37.2502 2.99999H4.7502Z" fill="white"/>
</svg>
