<svg width="17" height="17" viewBox="0 0 17 17" fill="none" xmlns="http://www.w3.org/2000/svg">
<path fill-rule="evenodd" clip-rule="evenodd" d="M16.6777 1.8766C16.7798 1.77465 16.8608 1.65359 16.9161 1.52033C16.9714 1.38708 16.9999 1.24423 17 1.09996C17.0001 0.955691 16.9718 0.812814 16.9166 0.679491C16.8615 0.546167 16.7807 0.425007 16.6787 0.322928C16.5768 0.22085 16.4557 0.139853 16.3224 0.0845606C16.1892 0.0292682 16.0464 0.000763952 15.9021 0.000675279C15.7578 0.000586605 15.6149 0.0289152 15.4816 0.0840437C15.3483 0.139172 15.2271 0.220021 15.1251 0.321974L8.49986 6.94728L1.87657 0.321974C1.67042 0.115817 1.39081 -2.17221e-09 1.09927 0C0.807725 2.17221e-09 0.528121 0.115817 0.321968 0.321974C0.115815 0.52813 2.17218e-09 0.807738 0 1.09929C-2.17217e-09 1.39084 0.115815 1.67044 0.321968 1.8766L6.94717 8.5L0.321968 15.1234C0.219892 15.2255 0.13892 15.3467 0.0836767 15.48C0.0284333 15.6134 0 15.7563 0 15.9007C0 16.0451 0.0284333 16.188 0.0836767 16.3214C0.13892 16.4548 0.219892 16.5759 0.321968 16.678C0.528121 16.8842 0.807725 17 1.09927 17C1.24363 17 1.38657 16.9716 1.51994 16.9163C1.65331 16.8611 1.77449 16.7801 1.87657 16.678L8.49986 10.0527L15.1251 16.678C15.3312 16.8839 15.6107 16.9995 15.9021 16.9993C16.1934 16.9991 16.4728 16.8832 16.6787 16.6771C16.8846 16.4709 17.0002 16.1914 17 15.9C16.9998 15.6087 16.8839 15.3293 16.6777 15.1234L10.0526 8.5L16.6777 1.8766Z" fill="#FF0000"/>
</svg>
